<!-- Generated by IcoMoon.io -->
<svg version="1.1" xmlns="http://www.w3.org/2000/svg" width="256" height="256" viewBox="0 0 256 256">
<title></title>
<g>
</g>
<path d="M192.879 80c4.531-3.22 8.878-6.804 12.861-10.787 8.351-8.35 13.936-18.625 15.728-28.93 1.964-11.297-0.918-21.785-7.907-28.775-5.575-5.574-13.127-8.521-21.841-8.521-12.408 0-25.481 5.956-35.865 16.34-16.619 16.619-26.306 39.559-31.519 55.931-3.86-16.451-11.552-38.661-26.505-53.614-8.023-8.023-18.279-12.143-27.962-12.143-7.913 0-15.445 2.751-21.065 8.371-12.496 12.497-10.808 34.447 3.772 49.026 5.198 5.198 11.275 9.516 17.68 13.103h-54.256v64h16v112h192v-112h16v-64h-47.121zM168.582 32.054c6.931-6.931 15.581-11.069 23.137-11.069 2.675 0 6.427 0.564 9.113 3.25 6.507 6.507 2.853 21.577-7.82 32.249-10.987 10.986-25.765 18.542-38.608 23.515h-12.668c4.642-14.387 13.014-34.114 26.846-47.946zM58.483 40.222c-0.175-2.28-0.013-6.562 3.049-9.623 2.561-2.561 5.947-3.099 8.337-3.099v0c5.314 0 10.867 2.504 15.233 6.87 8.468 8.468 15.442 21.943 20.167 38.969 0.127 0.46 0.252 0.918 0.374 1.371-0.454-0.121-0.912-0.246-1.371-0.374-17.026-4.726-30.501-11.7-38.968-20.168-3.957-3.956-6.443-9.040-6.82-13.947zM112 240h-64v-104h64v104zM112 128h-80v-32h80v32zM208 240h-64v-104h64v104zM224 128h-80v-32h80v32z"></path>
</svg>
